<svg width="187" height="36" viewBox="0 0 187 36" fill="none" xmlns="http://www.w3.org/2000/svg">
<path d="M2.674 1.82398L1.774 1.66798L1.774 0.923984L3.586 0.923985C3.754 0.923985 4.014 0.915985 4.366 0.899984C4.83 0.867985 5.25 0.851985 5.626 0.851985C6.458 0.851985 7.114 0.955985 7.594 1.16399C8.082 1.36399 8.426 1.65599 8.626 2.03999C8.834 2.41599 8.938 2.89599 8.938 3.47999C8.938 4.48799 8.622 5.27199 7.99 5.83199C7.366 6.39199 6.498 6.67199 5.386 6.67199C4.946 6.67199 4.63 6.65999 4.438 6.63598L4.438 8.99999L6.046 9.11999L6.046 9.83999L1.726 9.83998L1.726 9.11998L2.674 8.99998L2.674 1.82398ZM4.426 5.86798C4.61 5.90799 4.922 5.92799 5.362 5.92799C5.898 5.92799 6.326 5.74399 6.646 5.37599C6.974 4.99999 7.138 4.37999 7.138 3.51599C7.138 2.84399 6.99 2.35599 6.694 2.05199C6.406 1.73999 5.962 1.58399 5.362 1.58399C5.138 1.58399 4.906 1.59999 4.666 1.63199C4.554 1.64798 4.474 1.65598 4.426 1.65598L4.426 5.86798Z" fill="white"/>
<path d="M9.58759 7.96799C9.58759 7.23999 9.95159 6.69199 10.6796 6.32399C11.4156 5.95599 12.3636 5.76799 13.5236 5.75999V5.48399C13.5236 5.15599 13.4876 4.89999 13.4156 4.71599C13.3516 4.53199 13.2276 4.39599 13.0436 4.30799C12.8676 4.21199 12.6076 4.16399 12.2636 4.16399C11.8716 4.16399 11.5196 4.21599 11.2076 4.31999C10.8956 4.41599 10.5716 4.54399 10.2356 4.70399L9.8636 3.93599C9.9836 3.83199 10.1836 3.70799 10.4636 3.56399C10.7516 3.41999 11.0916 3.29599 11.4836 3.19199C11.8756 3.07999 12.2796 3.02399 12.6956 3.02399C13.3116 3.02399 13.7916 3.10399 14.1356 3.26399C14.4876 3.42399 14.7396 3.67999 14.8916 4.03199C15.0436 4.38399 15.1196 4.85599 15.1196 5.44799V9.11999H15.7676V9.79199C15.6076 9.83199 15.3796 9.87199 15.0836 9.91199C14.7876 9.95199 14.5276 9.97199 14.3036 9.97199C14.0316 9.97199 13.8476 9.93199 13.7516 9.85199C13.6636 9.77199 13.6196 9.60799 13.6196 9.35999V9.03599C13.4036 9.27599 13.1236 9.49199 12.7796 9.68399C12.4356 9.87599 12.0476 9.97199 11.6156 9.97199C11.2476 9.97199 10.9076 9.89599 10.5956 9.74399C10.2916 9.58399 10.0476 9.35599 9.86359 9.05999C9.67959 8.75599 9.58759 8.39199 9.58759 7.96799ZM12.3836 8.97599C12.5516 8.97599 12.7436 8.92799 12.9596 8.83199C13.1756 8.72799 13.3636 8.60399 13.5236 8.45999L13.5236 6.49199C12.8036 6.49199 12.2636 6.61599 11.9036 6.86399C11.5516 7.10399 11.3756 7.41599 11.3756 7.79999C11.3756 8.18399 11.4636 8.47599 11.6396 8.67599C11.8236 8.87599 12.0716 8.97599 12.3836 8.97599Z" fill="white"/>
<path d="M18.5325 9.94799C18.0285 9.94799 17.6565 9.83199 17.4165 9.59999C17.1765 9.36799 17.0565 8.99999 17.0565 8.49599V4.09199H16.2765V3.46799C16.3405 3.44399 16.4565 3.40399 16.6245 3.34799C16.7925 3.28399 16.9205 3.23199 17.0085 3.19199C17.1445 3.08799 17.2605 2.90799 17.3565 2.65199C17.4285 2.48399 17.5605 2.06799 17.7525 1.40399L18.7125 1.40399L18.7605 3.16799L20.5965 3.16799V4.09199L18.7725 4.09199L18.7725 7.46399C18.7725 7.91199 18.7845 8.22799 18.8085 8.41199C18.8325 8.59599 18.8845 8.71599 18.9645 8.77199C19.0445 8.81999 19.1845 8.84399 19.3845 8.84399C19.5845 8.84399 19.7925 8.82399 20.0085 8.78399C20.2245 8.73599 20.4045 8.67999 20.5485 8.61599L20.7765 9.28799C20.5525 9.45599 20.2245 9.60799 19.7925 9.74399C19.3605 9.87999 18.9405 9.94799 18.5325 9.94799Z" fill="white"/>
<path d="M22.8429 2.07599C22.5549 2.07599 22.3269 1.99199 22.1589 1.82399C21.9909 1.65599 21.9069 1.43999 21.9069 1.17599C21.9069 0.871988 22.0029 0.619988 22.1949 0.419988C22.3869 0.219988 22.6429 0.119988 22.9629 0.119988C23.2829 0.119988 23.5269 0.207988 23.6949 0.383988C23.8629 0.551988 23.9469 0.763988 23.9469 1.01999C23.9469 1.33999 23.8509 1.59599 23.6589 1.78799C23.4669 1.97999 23.1989 2.07599 22.8549 2.07599H22.8429ZM22.2069 4.30799L21.3549 4.07999V3.27599L23.5509 3.01199H23.5749L23.9109 3.25199L23.9109 9.02399L24.7149 9.11999V9.83999L21.3669 9.83999V9.11999L22.2069 9.01199V4.30799Z" fill="white"/>
<path d="M28.5991 9.97199C27.5431 9.97199 26.7551 9.66399 26.2351 9.04799C25.7231 8.42399 25.4671 7.57599 25.4671 6.50399C25.4671 5.78399 25.5991 5.15999 25.8631 4.63199C26.1351 4.10399 26.5151 3.69999 27.0031 3.41999C27.4911 3.13999 28.0551 2.99999 28.6951 2.99999C29.4951 2.99999 30.1111 3.21199 30.5431 3.63599C30.9751 4.05199 31.1991 4.64799 31.2151 5.42399C31.2151 5.95199 31.1831 6.34399 31.1191 6.59999L27.2191 6.59999C27.2511 7.32799 27.4231 7.89599 27.7351 8.30399C28.0471 8.70399 28.4911 8.90399 29.0671 8.90399C29.3791 8.90399 29.6991 8.85199 30.0271 8.74799C30.3631 8.64399 30.6271 8.51999 30.8191 8.37599L31.1191 9.03599C30.9031 9.26799 30.5511 9.48399 30.0631 9.68399C29.5831 9.87599 29.0951 9.97199 28.5991 9.97199ZM29.5351 5.87999C29.5511 5.65599 29.5591 5.48399 29.5591 5.36399C29.5591 4.29999 29.2031 3.76799 28.4911 3.76799C28.0991 3.76799 27.7951 3.92399 27.5791 4.23599C27.3631 4.54799 27.2431 5.09599 27.2191 5.87999L29.5351 5.87999Z" fill="white"/>
<path d="M32.8447 4.30799L32.0767 4.09199V3.26399L34.0687 3.01199H34.1047L34.4047 3.25199V3.71999L34.3927 4.00799C34.6727 3.74399 35.0367 3.51599 35.4847 3.32399C35.9327 3.13199 36.3847 3.03599 36.8407 3.03599C37.3287 3.03599 37.7087 3.12799 37.9807 3.31199C38.2607 3.48799 38.4607 3.76799 38.5807 4.15199C38.7007 4.53599 38.7607 5.05599 38.7607 5.71199V9.02399L39.4927 9.11999V9.83999L36.3967 9.83999L36.3967 9.11999L37.0447 9.02399V5.71199C37.0447 5.29599 37.0167 4.97199 36.9607 4.73999C36.9047 4.49999 36.8007 4.32799 36.6487 4.22399C36.5047 4.11199 36.2967 4.05599 36.0247 4.05599C35.5687 4.05599 35.0807 4.25199 34.5607 4.64399V9.01199L35.2807 9.11999V9.83999L32.1487 9.83999V9.11999L32.8447 9.01199V4.30799Z" fill="white"/>
<path d="M42.2367 9.94799C41.7327 9.94799 41.3607 9.83199 41.1207 9.59999C40.8807 9.36799 40.7607 8.99999 40.7607 8.49599V4.09199L39.9807 4.09199V3.46799C40.0447 3.44399 40.1607 3.40399 40.3287 3.34799C40.4967 3.28399 40.6247 3.23199 40.7127 3.19199C40.8487 3.08799 40.9647 2.90799 41.0607 2.65199C41.1327 2.48399 41.2647 2.06799 41.4567 1.40399L42.4167 1.40399L42.4647 3.16799L44.3007 3.16799V4.09199L42.4767 4.09199V7.46399C42.4767 7.91199 42.4887 8.22799 42.5127 8.41199C42.5367 8.59599 42.5887 8.71599 42.6687 8.77199C42.7487 8.81999 42.8887 8.84399 43.0887 8.84399C43.2887 8.84399 43.4967 8.82399 43.7127 8.78399C43.9287 8.73599 44.1087 8.67999 44.2527 8.61599L44.4807 9.28799C44.2567 9.45599 43.9287 9.60799 43.4967 9.74399C43.0647 9.87999 42.6447 9.94799 42.2367 9.94799Z" fill="white"/>
<path d="M48.8428 1.82399L47.9428 1.66799V0.923992L49.6948 0.923993C49.9588 0.923993 50.3148 0.907993 50.7628 0.875993C50.8668 0.867993 51.0228 0.859993 51.2308 0.851993C51.4468 0.843993 51.6388 0.839993 51.8068 0.839993C53.2788 0.839993 54.3788 1.20799 55.1068 1.94399C55.8428 2.67999 56.2108 3.72399 56.2108 5.07599C56.2108 6.01999 56.0268 6.85999 55.6588 7.59599C55.2988 8.33199 54.7828 8.90799 54.1108 9.32399C53.4388 9.73199 52.6548 9.93599 51.7588 9.93599C51.5268 9.93599 51.1628 9.91999 50.6668 9.88799C50.2028 9.85599 49.8868 9.83999 49.7188 9.83999L47.8948 9.83999V9.11999L48.8428 8.99999L48.8428 1.82399ZM50.5828 9.03599C50.8548 9.10799 51.2348 9.14399 51.7228 9.14399C52.5228 9.12799 53.1508 8.80799 53.6068 8.18399C54.0628 7.55199 54.2908 6.60799 54.2908 5.35199C54.2908 4.15999 54.0668 3.23999 53.6188 2.59199C53.1708 1.93599 52.4748 1.60799 51.5308 1.60799C51.3308 1.60799 51.1388 1.61999 50.9548 1.64399C50.7788 1.66799 50.6548 1.68399 50.5828 1.69199V9.03599Z" fill="white"/>
<path d="M60.1197 9.972C59.0637 9.972 58.2757 9.66399 57.7557 9.04799C57.2437 8.42399 56.9877 7.57599 56.9877 6.50399C56.9877 5.78399 57.1197 5.15999 57.3837 4.63199C57.6557 4.10399 58.0357 3.69999 58.5237 3.41999C59.0117 3.13999 59.5757 2.99999 60.2157 2.99999C61.0157 2.99999 61.6317 3.21199 62.0637 3.636C62.4957 4.052 62.7197 4.64799 62.7357 5.424C62.7357 5.952 62.7037 6.344 62.6397 6.6L58.7397 6.59999C58.7717 7.32799 58.9437 7.896 59.2557 8.304C59.5677 8.704 60.0117 8.904 60.5877 8.904C60.8997 8.904 61.2197 8.852 61.5477 8.748C61.8837 8.644 62.1477 8.52 62.3397 8.376L62.6397 9.036C62.4237 9.268 62.0717 9.484 61.5837 9.684C61.1037 9.876 60.6157 9.972 60.1197 9.972ZM61.0557 5.87999C61.0717 5.65599 61.0797 5.48399 61.0797 5.36399C61.0797 4.29999 60.7237 3.76799 60.0117 3.76799C59.6197 3.76799 59.3157 3.92399 59.0997 4.23599C58.8837 4.54799 58.7637 5.09599 58.7397 5.87999L61.0557 5.87999Z" fill="white"/>
<path d="M63.6933 9.132L64.4853 9.036V4.308L63.7173 4.092V3.264L65.5773 3.012H65.6133L65.9133 3.252V3.516L65.8773 4.488H65.9133C65.9693 4.328 66.1013 4.132 66.3093 3.9C66.5173 3.66 66.7773 3.452 67.0893 3.276C67.4093 3.092 67.7533 3 68.1213 3C68.2973 3 68.4493 3.024 68.5773 3.072V4.872C68.3373 4.704 68.0453 4.62 67.7013 4.62C67.1173 4.62 66.6093 4.776 66.1773 5.088V9.024L67.5693 9.132V9.84L63.6933 9.84V9.132Z" fill="white"/>
<path d="M70.7698 2.076C70.4818 2.076 70.2538 1.992 70.0858 1.824C69.9178 1.656 69.8338 1.44 69.8338 1.176C69.8338 0.871996 69.9298 0.619996 70.1218 0.419996C70.3138 0.219996 70.5698 0.119996 70.8898 0.119996C71.2098 0.119996 71.4538 0.207996 71.6218 0.383996C71.7898 0.551997 71.8738 0.763997 71.8738 1.02C71.8738 1.34 71.7778 1.596 71.5858 1.788C71.3938 1.98 71.1258 2.076 70.7818 2.076H70.7698ZM70.1338 4.308L69.2818 4.08V3.276L71.4778 3.012H71.5018L71.8378 3.252V9.024L72.6418 9.12V9.84L69.2938 9.84V9.12L70.1338 9.012V4.308Z" fill="white"/>
<path d="M72.8899 3.168L76.0579 3.168V3.864L75.2659 4.02L76.3579 7.284L76.7419 8.556L77.0659 7.32L78.1339 4.02L77.3779 3.864V3.168L80.0179 3.168V3.864L79.3939 4.02L77.1619 9.936H75.7699L73.3819 4.02L72.8899 3.864V3.168Z" fill="white"/>
<path d="M83.2614 9.972C82.2054 9.972 81.4174 9.664 80.8974 9.048C80.3854 8.424 80.1294 7.576 80.1294 6.504C80.1294 5.784 80.2614 5.16 80.5254 4.632C80.7974 4.104 81.1774 3.7 81.6654 3.42C82.1534 3.14 82.7174 3 83.3574 3C84.1574 3 84.7734 3.212 85.2054 3.636C85.6374 4.052 85.8614 4.648 85.8774 5.424C85.8774 5.952 85.8454 6.344 85.7814 6.6L81.8814 6.6C81.9134 7.328 82.0854 7.896 82.3974 8.304C82.7094 8.704 83.1534 8.904 83.7294 8.904C84.0414 8.904 84.3614 8.852 84.6894 8.748C85.0254 8.644 85.2894 8.52 85.4814 8.376L85.7814 9.036C85.5654 9.268 85.2134 9.484 84.7254 9.684C84.2454 9.876 83.7574 9.972 83.2614 9.972ZM84.1974 5.88C84.2134 5.656 84.2214 5.484 84.2214 5.364C84.2214 4.3 83.8654 3.768 83.1534 3.768C82.7614 3.768 82.4574 3.924 82.2414 4.236C82.0254 4.548 81.9054 5.096 81.8814 5.88L84.1974 5.88Z" fill="white"/>
<path d="M89.3431 9.972C88.8471 9.972 88.4031 9.856 88.0111 9.624C87.6191 9.384 87.3071 9.016 87.0751 8.52C86.8431 8.024 86.7271 7.404 86.7271 6.66C86.7271 5.988 86.8631 5.376 87.1351 4.824C87.4151 4.264 87.8231 3.82 88.3591 3.492C88.8951 3.164 89.5391 3 90.2911 3C90.5951 3 90.8831 3.032 91.1551 3.096V1.068L89.9791 0.899999V0.24L92.4511 0L92.4871 6.29448e-09L92.8231 0.252V9.108H93.4711V9.792C92.8951 9.912 92.4191 9.972 92.0431 9.972C91.7871 9.972 91.6031 9.928 91.4911 9.84C91.3871 9.76 91.3351 9.596 91.3351 9.348V9.012C91.1271 9.292 90.8431 9.524 90.4831 9.708C90.1231 9.884 89.7431 9.972 89.3431 9.972ZM89.9671 8.976C90.2311 8.976 90.4631 8.924 90.6631 8.82C90.8711 8.708 91.0351 8.576 91.1551 8.424V4.056C91.0991 3.976 90.9791 3.908 90.7951 3.852C90.6191 3.796 90.4271 3.768 90.2191 3.768C89.7071 3.768 89.2951 3.992 88.9831 4.44C88.6791 4.88 88.5271 5.588 88.5271 6.564C88.5271 7.38 88.6591 7.988 88.9231 8.388C89.1871 8.78 89.5351 8.976 89.9671 8.976Z" fill="white"/>
<path d="M98.406 17.472L95.598 17.134V15.522L103.71 15.522L106.804 26.702L107.532 29.744L108.156 26.702L111.224 15.522L119.258 15.522V17.134L116.424 17.472L118.504 32.994L120.61 33.28V34.84H112.316V33.28L114.604 33.02L113.46 21.632L112.966 16.874L112.004 20.878L108.234 34.034L105.478 34.034L101.63 21.554L100.304 16.874L99.914 21.632L98.926 33.02L101.552 33.28V34.84H94.324V33.28L96.508 33.02L98.406 17.472Z" fill="white"/>
<path d="M121.328 27.638C121.328 26.0087 121.648 24.622 122.29 23.478C122.948 22.334 123.824 21.476 124.916 20.904C126.008 20.3147 127.195 20.02 128.478 20.02C130.662 20.02 132.343 20.696 133.522 22.048C134.718 23.3827 135.316 25.2027 135.316 27.508C135.316 29.1547 134.986 30.5587 134.328 31.72C133.686 32.864 132.82 33.722 131.728 34.294C130.653 34.8487 129.466 35.126 128.166 35.126C125.999 35.126 124.318 34.4587 123.122 33.124C121.926 31.772 121.328 29.9434 121.328 27.638ZM128.374 33.436C130.332 33.436 131.312 31.5467 131.312 27.768C131.312 25.792 131.078 24.2927 130.61 23.27C130.142 22.23 129.379 21.71 128.322 21.71C126.311 21.71 125.306 23.5994 125.306 27.378C125.306 29.354 125.548 30.862 126.034 31.902C126.536 32.9247 127.316 33.436 128.374 33.436Z" fill="white"/>
<path d="M142.593 35.126C141.519 35.126 140.557 34.8747 139.707 34.372C138.858 33.852 138.182 33.0547 137.679 31.98C137.177 30.9054 136.925 29.562 136.925 27.95C136.925 26.494 137.22 25.168 137.809 23.972C138.416 22.7587 139.3 21.7967 140.461 21.086C141.623 20.3754 143.018 20.02 144.647 20.02C145.306 20.02 145.93 20.0894 146.519 20.228V15.834L143.971 15.47V14.04L149.327 13.52H149.405L150.133 14.066V33.254H151.537V34.736C150.289 34.996 149.258 35.126 148.443 35.126C147.889 35.126 147.49 35.0307 147.247 34.84C147.022 34.6667 146.909 34.3114 146.909 33.774V33.046C146.459 33.6527 145.843 34.1554 145.063 34.554C144.283 34.9354 143.46 35.126 142.593 35.126ZM143.945 32.968C144.517 32.968 145.02 32.8554 145.453 32.63C145.904 32.3874 146.259 32.1014 146.519 31.772V22.308C146.398 22.1347 146.138 21.9874 145.739 21.866C145.358 21.7447 144.942 21.684 144.491 21.684C143.382 21.684 142.489 22.1694 141.813 23.14C141.155 24.0934 140.825 25.6274 140.825 27.742C140.825 29.51 141.111 30.8274 141.683 31.694C142.255 32.5434 143.009 32.968 143.945 32.968Z" fill="white"/>
<path d="M159.207 35.126C156.919 35.126 155.211 34.4587 154.085 33.124C152.975 31.772 152.421 29.9347 152.421 27.612C152.421 26.052 152.707 24.7 153.279 23.556C153.868 22.412 154.691 21.5367 155.749 20.93C156.806 20.3234 158.028 20.02 159.415 20.02C161.148 20.02 162.483 20.4794 163.419 21.398C164.355 22.2994 164.84 23.5907 164.875 25.272C164.875 26.416 164.805 27.2654 164.667 27.82H156.217C156.286 29.3974 156.659 30.628 157.335 31.512C158.011 32.3787 158.973 32.812 160.221 32.812C160.897 32.812 161.59 32.6994 162.301 32.474C163.029 32.2487 163.601 31.98 164.017 31.668L164.667 33.098C164.199 33.6007 163.436 34.0687 162.379 34.502C161.339 34.918 160.281 35.126 159.207 35.126ZM161.235 26.26C161.269 25.7747 161.287 25.402 161.287 25.142C161.287 22.8367 160.515 21.684 158.973 21.684C158.123 21.684 157.465 22.022 156.997 22.698C156.529 23.374 156.269 24.5614 156.217 26.26L161.235 26.26Z" fill="white"/>
<path d="M167.938 15.834L166.014 15.496V14.092L170.824 13.52H170.876L171.578 14.014V33.072L173.476 33.28V34.84L166.118 34.84V33.28L167.938 33.046V15.834Z" fill="white"/>
<path d="M178.151 32.708C178.29 32.916 178.602 33.1154 179.087 33.306C179.59 33.4794 180.093 33.566 180.595 33.566C181.41 33.566 182.017 33.4014 182.415 33.072C182.831 32.7254 183.039 32.2747 183.039 31.72C183.039 31.148 182.788 30.6887 182.285 30.342C181.783 29.978 180.933 29.536 179.737 29.016L179.009 28.704C177.813 28.2014 176.921 27.5947 176.331 26.884C175.742 26.1734 175.447 25.2547 175.447 24.128C175.447 23.348 175.681 22.6547 176.149 22.048C176.617 21.424 177.276 20.9387 178.125 20.592C178.975 20.2454 179.954 20.072 181.063 20.072C181.878 20.072 182.571 20.124 183.143 20.228C183.733 20.332 184.348 20.4707 184.989 20.644C185.336 20.7654 185.596 20.8347 185.769 20.852V24.258L183.715 24.258L183.117 22.282C183.013 22.1087 182.779 21.9527 182.415 21.814C182.051 21.6754 181.635 21.606 181.167 21.606C180.457 21.606 179.885 21.762 179.451 22.074C179.035 22.3687 178.827 22.7847 178.827 23.322C178.827 23.8074 178.975 24.2147 179.269 24.544C179.564 24.856 179.885 25.0987 180.231 25.272C180.578 25.4454 181.219 25.7314 182.155 26.13C183.091 26.5287 183.863 26.91 184.469 27.274C185.093 27.638 185.605 28.1147 186.003 28.704C186.419 29.276 186.627 29.978 186.627 30.81C186.627 32.0927 186.125 33.1327 185.119 33.93C184.114 34.7274 182.667 35.126 180.777 35.126C179.893 35.126 179.096 35.048 178.385 34.892C177.692 34.736 176.886 34.528 175.967 34.268L175.395 34.086V30.654H177.553L178.151 32.708Z" fill="white"/>
<path d="M9.1 35.126C6.15333 35.126 3.9 34.2507 2.34 32.5C0.779999 30.732 -5.33395e-07 28.3227 0 25.272C3.51557e-07 23.2613 0.407334 21.5107 1.222 20.02C2.054 18.512 3.18934 17.3507 4.628 16.536C6.06667 15.7213 7.696 15.314 9.516 15.314C10.2787 15.314 11.0153 15.366 11.726 15.47C12.4367 15.5567 13.2773 15.678 14.248 15.834C14.976 15.9553 15.3747 16.016 15.444 16.016L15.158 21.372H12.766L11.96 17.654C11.7693 17.4633 11.44 17.3073 10.972 17.186C10.504 17.0647 9.906 17.004 9.178 17.004C7.70467 17.004 6.51733 17.6887 5.616 19.058C4.732 20.41 4.29 22.3773 4.29 24.96C4.29 27.456 4.71467 29.4927 5.564 31.07C6.41333 32.6473 7.65267 33.436 9.282 33.436C10.062 33.436 10.66 33.3667 11.076 33.228C11.5093 33.072 11.8733 32.8553 12.168 32.578L13.312 29.9L15.496 30.108L14.976 34.138C14.612 34.1727 14.248 34.242 13.884 34.346C13.5373 34.4327 13.3207 34.4847 13.234 34.502C12.5407 34.6927 11.8907 34.84 11.284 34.944C10.6947 35.0653 9.96667 35.126 9.1 35.126Z" fill="white"/>
<path d="M17.2433 30.784C17.2433 29.2067 18.0319 28.0193 19.6093 27.222C21.2039 26.4247 23.2579 26.0173 25.7713 26V25.402C25.7713 24.6913 25.6933 24.1367 25.5373 23.738C25.3986 23.3393 25.1299 23.0447 24.7313 22.854C24.3499 22.646 23.7866 22.542 23.0413 22.542C22.1919 22.542 21.4293 22.6547 20.7533 22.88C20.0773 23.088 19.3753 23.3653 18.6473 23.712L17.8413 22.048C18.1013 21.8227 18.5346 21.554 19.1413 21.242C19.7653 20.93 20.5019 20.6613 21.3513 20.436C22.2006 20.1933 23.0759 20.072 23.9773 20.072C25.3119 20.072 26.3519 20.2453 27.0973 20.592C27.8599 20.9387 28.4059 21.4933 28.7353 22.256C29.0646 23.0187 29.2293 24.0413 29.2293 25.324L29.2293 33.28H30.6333V34.736C30.2866 34.8227 29.7926 34.9093 29.1513 34.996C28.5099 35.0827 27.9466 35.126 27.4613 35.126C26.8719 35.126 26.4733 35.0393 26.2653 34.866C26.0746 34.6927 25.9793 34.3373 25.9793 33.8V33.098C25.5113 33.618 24.9046 34.086 24.1593 34.502C23.4139 34.918 22.5733 35.126 21.6373 35.126C20.8399 35.126 20.1033 34.9613 19.4273 34.632C18.7686 34.2853 18.2399 33.7913 17.8413 33.15C17.4426 32.4913 17.2433 31.7027 17.2433 30.784ZM23.3013 32.968C23.6653 32.968 24.0813 32.864 24.5493 32.656C25.0173 32.4307 25.4246 32.162 25.7713 31.85L25.7713 27.586C24.2113 27.586 23.0413 27.8547 22.2613 28.392C21.4986 28.912 21.1173 29.588 21.1173 30.42C21.1173 31.252 21.3079 31.8847 21.6893 32.318C22.0879 32.7513 22.6253 32.968 23.3013 32.968Z" fill="white"/>
<path d="M33.7118 22.854L32.0478 22.386V20.592L36.3638 20.046H36.4418L37.0918 20.566L37.0918 21.58L37.0658 22.204C37.6725 21.632 38.4612 21.138 39.4318 20.722C40.4025 20.306 41.3818 20.098 42.3698 20.098C43.4272 20.098 44.2505 20.2973 44.8398 20.696C45.4465 21.0773 45.8798 21.684 46.1398 22.516C46.3998 23.348 46.5298 24.4747 46.5298 25.896L46.5298 33.072L48.1158 33.28V34.84H41.4078L41.4078 33.28L42.8118 33.072V25.896C42.8118 24.9947 42.7512 24.2927 42.6298 23.79C42.5085 23.27 42.2832 22.8973 41.9538 22.672C41.6418 22.4293 41.1912 22.308 40.6018 22.308C39.6138 22.308 38.5565 22.7327 37.4298 23.582V33.046L38.9898 33.28V34.84L32.2038 34.84V33.28L33.7118 33.046L33.7118 22.854Z" fill="white"/>
<path d="M48.8351 27.69C48.8351 26.1993 49.1298 24.8733 49.7191 23.712C50.3258 22.5507 51.1838 21.6493 52.2931 21.008C53.4198 20.3493 54.7284 20.02 56.2191 20.02C56.9124 20.02 57.5104 20.072 58.0131 20.176C58.5158 20.28 59.0791 20.4187 59.7031 20.592L60.4571 20.8L60.3011 25.246H58.0391L57.3891 22.386C57.2851 21.9353 56.7738 21.71 55.8551 21.71C54.8844 21.71 54.1218 22.1347 53.5671 22.984C53.0298 23.8333 52.7524 25.1593 52.7351 26.962C52.7351 28.8687 53.0644 30.3333 53.7231 31.356C54.3818 32.3613 55.2571 32.864 56.3491 32.864C57.6664 32.864 58.8798 32.5087 59.9891 31.798L60.5871 33.15C60.1364 33.6353 59.4431 34.086 58.5071 34.502C57.5884 34.918 56.5918 35.126 55.5171 35.126C53.2984 35.126 51.6258 34.4413 50.4991 33.072C49.3898 31.7027 48.8351 29.9087 48.8351 27.69Z" fill="white"/>
<path d="M68.9475 35.126C66.6595 35.126 64.9522 34.4587 63.8255 33.124C62.7162 31.772 62.1615 29.9347 62.1615 27.612C62.1615 26.052 62.4475 24.7 63.0195 23.556C63.6089 22.412 64.4322 21.5367 65.4895 20.93C66.5469 20.3233 67.7689 20.02 69.1555 20.02C70.8889 20.02 72.2235 20.4793 73.1595 21.398C74.0955 22.2993 74.5809 23.5907 74.6155 25.272C74.6155 26.416 74.5462 27.2653 74.4075 27.82L65.9575 27.82C66.0269 29.3973 66.3995 30.628 67.0755 31.512C67.7515 32.3787 68.7135 32.812 69.9615 32.812C70.6375 32.812 71.3309 32.6993 72.0415 32.474C72.7695 32.2487 73.3415 31.98 73.7575 31.668L74.4075 33.098C73.9395 33.6007 73.1769 34.0687 72.1195 34.502C71.0795 34.918 70.0222 35.126 68.9475 35.126ZM70.9755 26.26C71.0102 25.7747 71.0275 25.402 71.0275 25.142C71.0275 22.8367 70.2562 21.684 68.7135 21.684C67.8642 21.684 67.2055 22.022 66.7375 22.698C66.2695 23.374 66.0095 24.5613 65.9575 26.26H70.9755Z" fill="white"/>
<path d="M76.4305 33.306L78.1464 33.098L78.1465 22.854L76.4825 22.386V20.592L80.5125 20.046H80.5905L81.2404 20.566V21.138L81.1625 23.244H81.2404C81.3618 22.8973 81.6478 22.4727 82.0984 21.97C82.5491 21.45 83.1125 20.9993 83.7885 20.618C84.4818 20.2193 85.2271 20.02 86.0245 20.02C86.4058 20.02 86.7351 20.072 87.0125 20.176V24.076C86.4925 23.712 85.8598 23.53 85.1144 23.53C83.8491 23.53 82.7484 23.868 81.8124 24.544V33.072L84.8285 33.306L84.8284 34.84L76.4305 34.84V33.306Z" fill="white"/>
</svg>
