<svg width="301" height="71" viewBox="0 0 301 71" fill="none" xmlns="http://www.w3.org/2000/svg">
<path d="M14.8006 44.26V58H6.64063V17.98H23.5606C28.1606 17.98 31.7606 19.04 34.3606 21.16C36.9606 23.28 38.2606 26.5 38.2606 30.82C38.2606 35.14 36.9606 38.46 34.3606 40.78C31.7606 43.1 28.1606 44.26 23.5606 44.26H14.8006ZM14.8006 37.72H22.5406C23.9006 37.72 25.0406 37.56 25.9606 37.24C26.8806 36.88 27.6006 36.4 28.1206 35.8C28.6406 35.16 29.0006 34.46 29.2006 33.7C29.4406 32.94 29.5606 32.12 29.5606 31.24C29.5606 30.32 29.4406 29.46 29.2006 28.66C29.0006 27.86 28.6406 27.14 28.1206 26.5C27.6006 25.86 26.8806 25.38 25.9606 25.06C25.0406 24.7 23.9006 24.52 22.5406 24.52H14.8006V37.72ZM45.6055 58V17.98H60.6655C67.3055 17.98 72.2055 19.66 75.3655 23.02C78.5655 26.38 80.1655 31.36 80.1655 37.96C80.1655 44.56 78.5655 49.56 75.3655 52.96C72.2055 56.32 67.3055 58 60.6655 58H45.6055ZM53.7655 51.46H59.7655C63.8055 51.46 66.8255 50.4 68.8255 48.28C70.8255 46.12 71.8255 42.68 71.8255 37.96C71.8255 33.28 70.8255 29.86 68.8255 27.7C66.8255 25.54 63.8055 24.46 59.7655 24.46H53.7655V51.46Z" fill="black"/>
<rect x="85" y="10" width="90" height="54" rx="5" fill="#0D4D8F"/>
<path d="M108.767 58.6C102.487 58.6 97.7472 56.9 94.5472 53.5C91.3472 50.1 89.7472 44.92 89.7472 37.96C89.7472 31.12 91.3272 25.98 94.4872 22.54C97.6472 19.06 102.407 17.32 108.767 17.32C110.887 17.32 112.987 17.58 115.067 18.1C117.187 18.62 119.227 19.34 121.187 20.26V26.2C119.227 25.04 117.267 24.2 115.307 23.68C113.387 23.12 111.487 22.84 109.607 22.84C106.687 22.84 104.247 23.36 102.287 24.4C100.367 25.44 98.9272 27.06 97.9672 29.26C97.0472 31.46 96.5872 34.38 96.5872 38.02C96.5872 41.58 97.0672 44.48 98.0272 46.72C98.9872 48.92 100.427 50.54 102.347 51.58C104.307 52.58 106.787 53.08 109.787 53.08C111.587 53.08 113.447 52.82 115.367 52.3C117.287 51.74 119.227 50.9 121.187 49.78V55.72C119.987 56.32 118.687 56.84 117.287 57.28C115.887 57.72 114.467 58.04 113.027 58.24C111.587 58.48 110.167 58.6 108.767 58.6ZM129.107 58V17.98H136.007L150.347 39.16L146.447 39.64L161.507 17.98H168.287V58H161.687V23.62L163.547 24.88L148.307 45.94L133.787 25.06L135.527 23.14V58H129.107Z" fill="white"/>
<path d="M180.738 51V24.32H197.858V28.04H185.138V36H196.258V39.76H185.138V51H180.738ZM202.728 51V31.04H206.928L206.968 51H202.728ZM202.608 27.72V23.92H207.088V27.72H202.608ZM212.999 32.56C213.586 32.2667 214.239 32 214.959 31.76C215.706 31.4933 216.492 31.2667 217.319 31.08C218.146 30.8933 218.986 30.7467 219.839 30.64C220.692 30.5333 221.519 30.48 222.319 30.48C224.212 30.48 225.759 30.7467 226.959 31.28C228.159 31.7867 229.052 32.5867 229.639 33.68C230.226 34.7467 230.519 36.0933 230.519 37.72V51H226.319V38.28C226.319 37.7733 226.252 37.28 226.119 36.8C226.012 36.2933 225.786 35.84 225.439 35.44C225.119 35.0133 224.639 34.68 223.999 34.44C223.386 34.2 222.572 34.08 221.559 34.08C220.839 34.08 220.092 34.1467 219.319 34.28C218.572 34.4133 217.866 34.6 217.199 34.84V51H212.999V32.56ZM245.317 51.6C244.09 51.6 242.89 51.44 241.717 51.12C240.543 50.8267 239.477 50.2933 238.517 49.52C237.557 48.72 236.797 47.6133 236.237 46.2C235.677 44.7867 235.397 42.96 235.397 40.72C235.397 37.5467 236.17 35.04 237.717 33.2C239.263 31.36 241.61 30.44 244.757 30.44C245.263 30.44 245.89 30.5067 246.637 30.64C247.383 30.7733 248.143 30.9733 248.917 31.24C249.69 31.48 250.343 31.8 250.877 32.2L249.797 33.6V22.52H253.957V46.8C253.957 47.6267 253.69 48.3467 253.157 48.96C252.65 49.5733 251.97 50.08 251.117 50.48C250.263 50.8533 249.33 51.1333 248.317 51.32C247.303 51.5067 246.303 51.6 245.317 51.6ZM245.437 47.96C246.637 47.96 247.663 47.8133 248.517 47.52C249.37 47.2267 249.797 46.84 249.797 46.36V35.2C249.103 34.8 248.37 34.5067 247.597 34.32C246.823 34.1333 246.077 34.04 245.357 34.04C244.05 34.04 242.97 34.3067 242.117 34.84C241.29 35.3467 240.677 36.1067 240.277 37.12C239.877 38.1067 239.677 39.3333 239.677 40.8C239.677 42.1333 239.837 43.3467 240.157 44.44C240.477 45.5067 241.05 46.36 241.877 47C242.73 47.64 243.917 47.96 245.437 47.96ZM268.514 51.6C266.541 51.6 264.821 51.2 263.354 50.4C261.914 49.6 260.794 48.4133 259.994 46.84C259.221 45.2667 258.834 43.3467 258.834 41.08C258.834 37.5867 259.647 34.9467 261.274 33.16C262.927 31.3467 265.221 30.44 268.154 30.44C270.314 30.44 272.061 30.92 273.394 31.88C274.727 32.84 275.687 34.1867 276.274 35.92C276.887 37.6267 277.181 39.6267 277.154 41.92H261.354L261.234 38.8H273.954L272.954 39.8C272.874 37.7467 272.447 36.2533 271.674 35.32C270.901 34.36 269.687 33.88 268.034 33.88C266.967 33.88 266.061 34.1067 265.314 34.56C264.567 34.9867 263.994 35.7333 263.594 36.8C263.221 37.84 263.034 39.28 263.034 41.12C263.034 43.36 263.554 45.0667 264.594 46.24C265.634 47.3867 267.167 47.96 269.194 47.96C270.101 47.96 270.941 47.88 271.714 47.72C272.514 47.56 273.247 47.36 273.914 47.12C274.581 46.8533 275.154 46.6 275.634 46.36V50.24C274.701 50.64 273.647 50.96 272.474 51.2C271.301 51.4667 269.981 51.6 268.514 51.6ZM281.983 51V32.76C282.33 32.5467 282.97 32.2533 283.903 31.88C284.837 31.5067 285.943 31.1867 287.223 30.92C288.503 30.6267 289.797 30.48 291.103 30.48C291.77 30.48 292.317 30.5333 292.743 30.64C293.17 30.7467 293.53 30.8667 293.823 31V34.36C293.21 34.28 292.57 34.2267 291.903 34.2C291.237 34.1467 290.57 34.1467 289.903 34.2C289.237 34.2267 288.583 34.28 287.943 34.36C287.303 34.44 286.717 34.52 286.183 34.6V51H281.983Z" fill="#586A83"/>
</svg>
